<?xml version="1.0" standalone="no"?>
<!DOCTYPE svg PUBLIC "-//W3C//DTD SVG 20010904//EN"
 "http://www.w3.org/TR/2001/REC-SVG-20010904/DTD/svg10.dtd">
<svg version="1.0" xmlns="http://www.w3.org/2000/svg"
 width="794.000000pt" height="201.000000pt" viewBox="0 0 794.000000 201.000000"
 preserveAspectRatio="xMidYMid meet">

<g transform="translate(0.000000,201.000000) scale(0.100000,-0.100000)"
fill="#2c3c54" stroke="#ffffff">
<path d="M1002 1970 c-13 -12 -27 -33 -33 -47 -5 -13 -9 -121 -9 -240 l0 -215
-22 16 c-159 114 -395 128 -582 34 -121 -61 -246 -209 -287 -337 -25 -78 -29
-209 -10 -291 19 -79 73 -188 121 -243 55 -62 153 -131 232 -164 76 -31 229
-42 321 -23 188 39 373 216 428 410 10 34 12 165 10 555 l-3 510 -23 24 c-34
35 -112 41 -143 11z m-246 -635 c78 -38 139 -97 175 -170 30 -61 31 -69 27
-162 -3 -87 -7 -105 -32 -148 -44 -74 -102 -132 -165 -162 -49 -24 -68 -28
-146 -28 -79 0 -97 3 -150 29 -73 36 -149 110 -178 174 -18 38 -22 65 -22 142
0 85 3 101 29 152 51 102 136 173 233 198 61 15 171 3 229 -25z"/>
<path d="M4835 1960 l-30 -31 -5 -231 -5 -230 -25 20 c-74 58 -190 92 -315 92
-149 0 -278 -52 -386 -157 -129 -124 -180 -238 -181 -403 0 -173 71 -329 199
-435 119 -98 216 -134 363 -135 244 0 436 137 538 382 l26 63 -3 520 -2 520
-24 24 c-16 17 -38 25 -72 28 -44 4 -51 2 -78 -27z m-239 -625 c78 -38 139
-97 175 -170 30 -62 31 -68 27 -162 -3 -77 -9 -108 -27 -142 -34 -66 -106
-137 -170 -168 -49 -24 -68 -28 -146 -28 -79 0 -97 4 -148 28 -72 36 -146 107
-176 171 -29 59 -38 164 -21 234 20 86 107 194 187 236 84 43 212 43 299 1z"/>
<path d="M6740 995 l0 -995 600 0 600 0 0 995 0 995 -600 0 -600 0 0 -995z
m771 548 c174 -59 316 -207 370 -384 19 -62 20 -88 17 -425 -3 -347 -4 -360
-25 -400 -63 -117 -185 -223 -318 -276 -66 -26 -98 -32 -185 -36 -188 -8 -312
40 -446 172 -91 90 -124 145 -124 206 0 58 49 100 117 100 28 0 103 -69 103
-95 0 -24 100 -114 159 -142 73 -34 192 -43 273 -19 74 21 144 70 190 131 35
46 38 55 38 117 l0 67 -51 -35 c-80 -54 -145 -69 -289 -69 -142 1 -190 15
-300 86 -96 62 -153 125 -198 220 -82 171 -84 328 -6 487 78 159 239 282 414
316 54 10 206 -2 261 -21z"/>
<path d="M7210 1329 c-65 -26 -143 -102 -180 -175 -22 -42 -25 -62 -25 -149 0
-92 2 -104 29 -153 34 -60 81 -107 152 -148 46 -27 56 -29 154 -29 94 0 110 3
155 27 63 33 129 103 161 171 29 64 33 186 8 260 -20 60 -86 132 -158 176 -51
31 -65 34 -149 38 -77 3 -101 0 -147 -18z"/>
<path d="M1412 1824 c-56 -39 -64 -117 -17 -168 34 -37 101 -37 144 0 26 22
31 33 31 71 0 55 -12 78 -50 98 -37 19 -80 19 -108 -1z"/>
<path d="M5240 1811 c-40 -39 -46 -73 -24 -122 21 -48 39 -59 93 -59 28 0 48
8 70 26 26 22 31 33 31 71 0 55 -12 78 -50 98 -46 24 -87 19 -120 -14z"/>
<path d="M1423 1570 c-13 -5 -32 -24 -43 -42 -20 -32 -20 -47 -18 -526 l3
-494 33 -29 c18 -16 44 -29 57 -29 38 0 92 25 104 48 8 14 11 181 11 520 l0
499 -22 21 c-23 21 -70 43 -91 41 -7 0 -22 -4 -34 -9z"/>
<path d="M5260 1567 c-14 -7 -33 -28 -42 -47 -16 -32 -18 -78 -18 -510 0 -457
1 -476 20 -508 11 -18 31 -37 44 -43 34 -16 93 -3 122 26 l24 24 0 504 0 504
-22 21 c-23 21 -69 42 -91 42 -7 0 -23 -6 -37 -13z"/>
<path d="M2121 1554 c-129 -34 -257 -129 -334 -244 -56 -84 -80 -160 -85 -270
-5 -116 13 -192 70 -303 66 -127 207 -234 361 -274 94 -24 222 -13 322 26 89
36 176 91 199 126 37 57 4 149 -58 160 -42 8 -71 0 -114 -32 -155 -116 -340
-104 -476 33 -70 69 -91 123 -91 229 0 79 4 97 28 147 36 74 104 143 170 173
43 21 67 25 142 25 98 0 122 -8 229 -74 71 -43 113 -46 152 -13 21 18 28 35
32 75 4 51 4 53 -39 92 -55 50 -158 105 -235 125 -72 19 -201 18 -273 -1z"/>
<path d="M5658 1541 l-33 -29 0 -502 0 -502 33 -29 c18 -16 44 -29 57 -29 32
0 90 24 101 41 5 8 11 149 14 314 6 340 7 345 95 442 62 69 122 97 220 101
187 8 317 -103 345 -293 5 -38 10 -177 10 -308 0 -237 0 -238 24 -262 32 -32
85 -41 125 -21 63 33 63 33 59 368 -4 297 -4 304 -29 370 -14 37 -41 90 -59
118 -73 114 -223 214 -358 241 -128 24 -291 -5 -385 -70 l-43 -29 -10 31 c-11
38 -65 77 -105 77 -18 0 -42 -11 -61 -29z"/>
<path d="M3140 1541 c-130 -42 -251 -133 -321 -242 -138 -216 -99 -513 90
-691 72 -69 164 -123 245 -144 67 -18 207 -18 276 1 194 52 355 212 405 402
19 73 19 202 0 273 -50 189 -206 349 -394 404 -75 22 -229 20 -301 -3z m297
-225 c67 -32 138 -103 170 -172 23 -50 25 -65 21 -153 -3 -84 -7 -103 -32
-145 -40 -68 -99 -124 -162 -153 -77 -35 -201 -35 -276 0 -75 34 -142 98 -175
165 -24 50 -28 68 -28 147 1 74 5 98 24 135 53 103 130 172 219 197 65 18 173
9 239 -21z"/>
</g>
</svg>
